<?xml version="1.0" encoding="UTF-8" standalone="no"?>
<!-- Created with Inkscape (http://www.inkscape.org/) -->

<svg
   version="1.1"
   id="svg1"
   width="376"
   height="430"
   viewBox="0 0 376 430"
   sodipodi:docname="logo.svg"
   inkscape:version="1.3 (0e150ed6c4, 2023-07-21)"
   xml:space="preserve"
   xmlns:inkscape="http://www.inkscape.org/namespaces/inkscape"
   xmlns:sodipodi="http://sodipodi.sourceforge.net/DTD/sodipodi-0.dtd"
   xmlns="http://www.w3.org/2000/svg"
   xmlns:svg="http://www.w3.org/2000/svg"><defs
     id="defs1" /><sodipodi:namedview
     id="namedview1"
     pagecolor="#ffffff"
     bordercolor="#000000"
     borderopacity="0.25"
     inkscape:showpageshadow="2"
     inkscape:pageopacity="0.0"
     inkscape:pagecheckerboard="0"
     inkscape:deskcolor="#d1d1d1"
     inkscape:zoom="1.1944608"
     inkscape:cx="226.46202"
     inkscape:cy="213.06685"
     inkscape:window-width="1366"
     inkscape:window-height="705"
     inkscape:window-x="-8"
     inkscape:window-y="-8"
     inkscape:window-maximized="1"
     inkscape:current-layer="svg1"
     showguides="false" /><ellipse
     style="display:none;opacity:0.163488;fill:#000000;fill-opacity:1;stroke:none;stroke-width:3;stroke-dasharray:none;stroke-opacity:1"
     id="path16"
     cx="189.03403"
     cy="228.88174"
     rx="172.5"
     ry="172.50002"
     inkscape:label="délimitation" /><g
     id="g22"
     transform="translate(4.1307765,21.863104)"
     inkscape:label="soleil"><path
       style="opacity:1;fill:#ffffff;fill-opacity:1;stroke:#d7b400;stroke-width:3.12813;stroke-linecap:round;stroke-linejoin:round;stroke-miterlimit:0;stroke-dasharray:none;stroke-opacity:1"
       d="m 138.07384,51.594673 25.71757,16.354102 c 4.44627,-3.493119 4.65046,-3.708561 11.09016,-5.677844 l 8.72533,-26.188531 9.92115,26.328157 c 8.3193,1.216559 7.11105,1.659117 12.13281,4.807284 l 21.48057,-16.367948 -9.00809,27.40922 c 3.04196,3.601911 4.73738,4.393863 6.43597,11.806209 l 35.92639,3.358663 -34.24011,13.198075 c 1.03061,5.91421 -1.16295,7.01734 -2.68968,12.56911 l 20.54371,21.47193 -28.72344,-7.11838 c -1.70258,2.27152 -2.03786,5.17001 -8.77303,8.52345 l 4.80428,36.27216 -20.93677,-30.49217 c -10.44714,2.68859 -8.20511,-0.36553 -13.24425,-0.16326 l -17.05911,23.74202 0.0481,-29.48274 c -3.46233,-1.8761 -4.42376,-0.91753 -8.67556,-8.37791 l -41.23809,17.22263 33.47985,-31.40405 c -2.341,-2.62507 -3.96318,-8.13992 -2.45969,-13.06651 l -25.49532,-13.114842 27.88772,-3.405884 c 2.05321,-6.872835 3.3733,-7.94578 6.17294,-11.029554 z"
       id="path20"
       sodipodi:nodetypes="cccccccccccccccccccccccccccc" /><path
       style="opacity:1;fill:#ffffff;fill-opacity:1;stroke:#d7b400;stroke-width:3.61062;stroke-linecap:round;stroke-linejoin:round;stroke-miterlimit:0;stroke-dasharray:none;stroke-opacity:1"
       id="path21"
       sodipodi:type="arc"
       sodipodi:cx="63.049709"
       sodipodi:cy="202.68982"
       sodipodi:rx="26.450644"
       sodipodi:ry="26.450644"
       sodipodi:start="0"
       sodipodi:end="3.1415927"
       sodipodi:arc-type="arc"
       d="m 89.500353,202.68982 a 26.450644,26.450644 0 0 1 -13.225322,22.90693 26.450644,26.450644 0 0 1 -26.450644,0 26.450644,26.450644 0 0 1 -13.225321,-22.90693"
       sodipodi:open="true"
       inkscape:transform-center-x="-4.6988533"
       inkscape:transform-center-y="5.0927509"
       transform="rotate(-43.120509)" /></g><g
     id="g31"
     inkscape:label="vague"
     style="stroke:#45cdee;stroke-opacity:0.83132529"><path
       style="display:inline;fill:#ffffff;fill-opacity:0;stroke:#45cdee;stroke-width:1.5737;stroke-linecap:round;stroke-linejoin:round;stroke-miterlimit:0;stroke-dasharray:none;stroke-opacity:0.83132529"
       id="path22-7-5-7"
       sodipodi:type="arc"
       sodipodi:cx="177.73007"
       sodipodi:cy="-246.13658"
       sodipodi:rx="11.52864"
       sodipodi:ry="11.52864"
       sodipodi:start="0"
       sodipodi:end="2.8797933"
       sodipodi:arc-type="arc"
       d="m 189.25871,-246.13658 a 11.52864,11.52864 0 0 1 -10.02385,11.43001 11.52864,11.52864 0 0 1 -12.6406,-8.44618"
       sodipodi:open="true"
       inkscape:transform-center-x="2.9449599"
       inkscape:transform-center-y="-1.6845123"
       transform="rotate(128.09563)" /><path
       style="display:inline;fill:#ffffff;fill-opacity:0;stroke:#45cdee;stroke-width:1.48529;stroke-linecap:round;stroke-linejoin:round;stroke-miterlimit:0;stroke-dasharray:none;stroke-opacity:0.83132529"
       id="path22-7-5-7-6"
       sodipodi:type="arc"
       sodipodi:cx="50.526093"
       sodipodi:cy="-215.57471"
       sodipodi:rx="10.880947"
       sodipodi:ry="10.880947"
       sodipodi:start="0"
       sodipodi:end="2.8797933"
       sodipodi:arc-type="arc"
       d="m 61.40704,-215.57471 a 10.880947,10.880947 0 0 1 -9.460699,10.78786 10.880947,10.880947 0 0 1 -11.930436,-7.97166"
       sodipodi:open="true"
       inkscape:transform-center-x="1.3803217"
       inkscape:transform-center-y="-3.1773807"
       transform="rotate(147.35303)" /><path
       style="opacity:0.882834;fill:#999999;fill-opacity:0;stroke:#45cdee;stroke-width:3;stroke-linecap:round;stroke-linejoin:round;stroke-miterlimit:0;stroke-opacity:0.83132529"
       d="M 115.75835,385.17034 C 7.1975958,330.05895 -0.5624319,211.29683 34.891398,151.23505 c 23.150115,-42.41423 74.029332,-30.63462 72.312872,10.93998 -29.483676,-46.32279 -68.628017,23.97511 -43.350784,15.99185 21.610037,-10.48779 30.034722,16.65918 24.460494,18.80233 -27.506258,-17.77987 -39.915556,9.83423 -28.744983,42.35053 1.813591,5.27916 4.865635,13.62311 9.676203,15.26496 -1.512245,0.73575 5.185296,0.60468 12.773689,2.71464 5.104201,1.41922 14.978007,8.29349 12.681807,18.69851 -12.258371,-10.07267 -34.876956,3.69334 -29.13003,24.17716 8.879641,29.26748 33.038234,55.1398 50.187684,84.99533 z"
       id="path25"
       sodipodi:nodetypes="cccccscsccc" /><path
       style="display:inline;fill:#ffffff;fill-opacity:0;stroke:#45cdee;stroke-width:1.67941;stroke-linecap:round;stroke-linejoin:round;stroke-miterlimit:0;stroke-dasharray:none;stroke-opacity:0.83132529"
       id="path26"
       sodipodi:type="arc"
       sodipodi:cx="-116.48683"
       sodipodi:cy="-143.45572"
       sodipodi:rx="12.303066"
       sodipodi:ry="12.303066"
       sodipodi:start="0"
       sodipodi:end="2.6179939"
       sodipodi:arc-type="arc"
       d="m -104.18377,-143.45572 a 12.303066,12.303066 0 0 1 -9.11879,11.88385 12.303066,12.303066 0 0 1 -13.83904,-5.73232"
       sodipodi:open="true"
       inkscape:transform-center-x="-1.3115145"
       inkscape:transform-center-y="-7.5103441"
       transform="rotate(-168.00563)" /></g><g
     id="g28"
     style="display:inline;stroke:#10b911;stroke-opacity:0.83132529"
     inkscape:label="arbre"><path
       style="display:inline;fill:#ffffff;fill-opacity:0;stroke:#10b911;stroke-width:1.5;stroke-linecap:round;stroke-linejoin:round;stroke-miterlimit:0;stroke-dasharray:none;stroke-opacity:0.83132529"
       id="path22-7-5-7-6-5"
       sodipodi:type="arc"
       sodipodi:cx="57.003029"
       sodipodi:cy="398.05295"
       sodipodi:rx="10.880947"
       sodipodi:ry="10.880947"
       sodipodi:start="0"
       sodipodi:end="2.9670597"
       sodipodi:arc-type="arc"
       d="m 67.883976,398.05295 a 10.880947,10.880947 0 0 1 -9.93261,10.83954 10.880947,10.880947 0 0 1 -11.663978,-8.95009"
       sodipodi:open="true"
       inkscape:transform-center-x="-2.6301497"
       inkscape:transform-center-y="2.1249388"
       transform="rotate(-47.239388)" /><path
       style="display:inline;fill:#ffffff;fill-opacity:0;stroke:#10b911;stroke-width:1.5;stroke-linecap:round;stroke-linejoin:round;stroke-miterlimit:0;stroke-dasharray:none;stroke-opacity:0.83132529"
       id="path22-7-5-7-6-5-6"
       sodipodi:type="arc"
       sodipodi:cx="-344.96887"
       sodipodi:cy="141.67177"
       sodipodi:rx="17.933903"
       sodipodi:ry="17.933903"
       sodipodi:start="0"
       sodipodi:end="3.4906585"
       sodipodi:arc-type="arc"
       d="m -327.03497,141.67177 a 17.933903,17.933903 0 0 1 -10.83065,16.4672 17.933903,17.933903 0 0 1 -19.41024,-3.42255 17.933903,17.933903 0 0 1 -4.54537,-19.17841"
       sodipodi:open="true"
       inkscape:transform-center-x="-4.9609873"
       inkscape:transform-center-y="-2.607401"
       transform="rotate(-125.02252)" /><path
       style="display:inline;fill:#ffffff;fill-opacity:0;stroke:#10b911;stroke-width:1.5;stroke-linecap:round;stroke-linejoin:round;stroke-miterlimit:0;stroke-dasharray:none;stroke-opacity:0.83132529"
       id="path22-7-5-7-6-5-6-6"
       sodipodi:type="arc"
       sodipodi:cx="-256.00488"
       sodipodi:cy="261.79575"
       sodipodi:rx="12.375201"
       sodipodi:ry="12.375201"
       sodipodi:start="0"
       sodipodi:end="3.4906585"
       sodipodi:arc-type="arc"
       d="m -243.62968,261.79575 a 12.375201,12.375201 0 0 1 -7.47364,11.3631 12.375201,12.375201 0 0 1 -13.39394,-2.36171 12.375201,12.375201 0 0 1 -3.13651,-13.23396"
       sodipodi:open="true"
       inkscape:transform-center-x="-6.1927079"
       inkscape:transform-center-y="-1.0194206"
       transform="rotate(-96.501607)" /><path
       id="path26-8"
       style="display:inline;opacity:1;fill:#ffffff;fill-opacity:0;stroke:#10b911;stroke-width:2.4343;stroke-linecap:round;stroke-linejoin:round;stroke-miterlimit:0;stroke-opacity:0.83132529"
       inkscape:transform-center-x="2.5685102"
       inkscape:transform-center-y="2.437312"
       d="m 330.14896,252.79827 c -3.03559,2.41612 -11.40862,0.71789 -14.88127,-1.01218 -3.47265,-1.73008 -9.06904,-5.87206 -8.96866,-9.75051"
       sodipodi:nodetypes="csc" /><path
       style="display:inline;opacity:1;fill:none;fill-opacity:1;stroke:#10b911;stroke-width:3;stroke-linecap:round;stroke-linejoin:round;stroke-miterlimit:0;stroke-dasharray:none;stroke-opacity:0.83132529"
       d="m 302.55733,284.58392 2.92759,-42.45261 c -16.67566,13.06615 -28.78003,2.9173 -34.62461,-8.62564 -2.24399,-11.83149 2.2315,-16.94353 6.79844,-21.9641 -1.26642,-20.27561 9.63096,-45.24101 36.18076,-44.77017 21.5466,-0.0312 35.93775,21.94413 35.86252,42.86526 10.77326,12.31225 13.60124,39.05337 -18.74475,43.04595 l -26.85626,15.07952 c -1.3106,3.89776 -1.10017,10.83756 -1.30947,16.93788 15.02156,0.69401 31.74231,4.25293 42.93339,11.7855 0.0856,0.57693 -10.73632,-10.28149 -43.16761,-11.90159 z"
       id="path27"
       sodipodi:nodetypes="ccccccccccc" /></g><path
     style="opacity:1;fill:none;fill-opacity:1;stroke:#d4aa00;stroke-width:3;stroke-linecap:round;stroke-linejoin:round;stroke-miterlimit:0;stroke-dasharray:none;stroke-opacity:1"
     d="m 275.73735,328.65094 c 20.74233,-19.18683 28.68996,-19.65611 25.54922,-39.28573 11.34697,0.18762 21.10258,1.6033 31.3095,5.75574 l -1.06573,12.13065 c -1.55633,13.30685 -8.46665,15.68213 -15.48816,26.79033 0.0193,3.56708 -1.64528,7.87088 2.51159,9.62778 -16.07824,16.53652 -28.12115,26.38765 -46.98799,36.64363 5.94871,-10.53224 3.84798,-29.46781 4.17157,-51.6624 z"
     id="path31"
     sodipodi:nodetypes="cccccccc"
     inkscape:label="chemin" /><g
     id="g43"
     inkscape:label="mouettes"><path
       style="opacity:1;fill:#3bc1c1;fill-opacity:1;stroke:none;stroke-width:1.5;stroke-linecap:round;stroke-linejoin:round;stroke-miterlimit:0;stroke-dasharray:none;stroke-opacity:1"
       d="m 126.26689,185.95614 c 4.33001,-3.67393 10.25297,-1.81111 15.89699,0.13747 2.32997,0.80441 2.4536,-12.88273 12.64105,-13.23304 1.26217,-0.0434 0.0337,-3.17972 -1.18398,-2.36795 -10.50721,-0.64342 -9.59031,11.48854 -13.31973,10.93383 -6.10967,-0.90875 -11.66589,-2.45651 -15.3917,1.20193 0.15031,1.4114 0.13596,2.98746 1.35737,3.32776 z"
       id="path28"
       sodipodi:nodetypes="csscscc"
       inkscape:label="mouette" /><path
       style="opacity:1;fill:#d4aa00;fill-opacity:1;stroke:none;stroke-width:2.08335;stroke-linecap:round;stroke-linejoin:round;stroke-miterlimit:0;stroke-dasharray:none;stroke-opacity:1"
       d="m 100.56336,198.57842 c 7.87926,-0.35089 12.79809,6.7324 17.33772,13.6726 1.87408,2.86505 13.6518,-12.05806 25.13542,-3.77747 1.42275,1.02592 2.79685,-2.72471 0.76938,-2.86912 -10.98947,-9.64367 -20.92935,5.988 -24.55236,2.20677 -5.93536,-6.19454 -10.57998,-13.13499 -17.78267,-12.28719 -1.03546,1.67755 -1.959128,1.64188 -0.90749,3.05441 z"
       id="path29"
       sodipodi:nodetypes="csscscc"
       inkscape:label="mouette" /><path
       style="opacity:1;fill:#3bc1c1;fill-opacity:1;stroke:none;stroke-width:1.5;stroke-linecap:round;stroke-linejoin:round;stroke-miterlimit:0;stroke-dasharray:none;stroke-opacity:1"
       d="m 223.94186,190.65317 c 5.1389,-2.41628 10.37025,0.92805 15.30995,4.28235 2.03921,1.38472 5.73136,-11.79562 15.65705,-9.47451 1.22974,0.28757 0.86254,-3.06069 -0.52482,-2.59492 -9.97497,-3.36384 -12.25671,8.58684 -15.71203,7.07786 -5.66063,-2.47207 -10.6202,-5.41653 -15.17181,-2.85749 -0.22332,1.4017 -0.64858,2.91937 0.44166,3.56671 z"
       id="path30"
       sodipodi:nodetypes="csscscc"
       inkscape:label="mouette" /></g><g
     id="g23"
     inkscape:label="famillr"
     transform="translate(3.0261986,1.4928787)"
     style="stroke:#d45500;stroke-opacity:1"><g
       id="g8"
       inkscape:label="padre"
       style="display:inline;fill:#ffffff;stroke:#d45500;stroke-width:3;stroke-dasharray:none;stroke-opacity:1"
       transform="matrix(1.0111923,0,0,1.0111923,-24.613357,46.439698)"><circle
         style="display:inline;opacity:1;fill:#ffffff;stroke:#d45500;stroke-width:3;stroke-dasharray:none;stroke-opacity:1"
         id="path6"
         cx="212.84761"
         cy="163.18622"
         r="17.836414" /><path
         style="opacity:1;fill:#ffffff;stroke:#d45500;stroke-width:3;stroke-dasharray:none;stroke-opacity:1"
         d="m 200.20488,342.82668 c 3.74793,3.71587 5.24041,3.48885 8.44478,-0.2253 l -2.6763,-17.34232 -2.88478,0.14424 z"
         id="path8"
         sodipodi:nodetypes="ccccc" /><path
         style="display:inline;opacity:1;fill:#ffffff;stroke:#d45500;stroke-width:3;stroke-dasharray:none;stroke-opacity:1"
         d="m 160.10534,199.04989 c 11.26607,4.17096 24.68226,5.33174 37.79064,6.92347 l 2.88478,10.96217 0.86544,25.67455 c -4.45189,10.29654 1.5646,20.65284 -1.73088,29.13629 v 2.01935 c 9.62869,-1.87804 19.06746,-1.98562 31.31778,-14.35017 l 4.30927,5.84006 -8.79858,12.83728 c 2.16111,19.36865 -0.27667,53.24169 1.31702,59.56713 3.05609,12.12985 14.91157,5.34654 17.00411,0.29329 4.1905,-10.11958 5.8958,-40.81215 4.46864,-86.97736 -3.42526,-9.69512 1.49035,21.79399 -0.86544,-23.65521 l -0.86543,-24.52064 c 12.87696,-14.4806 24.12985,-19.91687 32.21819,-38.11053 1.91864,-4.69387 2.20629,-11.11164 -0.17187,-12.24741 -3.84453,-1.83608 -8.39335,1.79381 -10.97445,5.77064 -33.14526,43.69665 -89.25207,25.8031 -108.76922,40.83709 z"
         id="path5"
         sodipodi:nodetypes="cccccccccssccccscc" /><path
         style="opacity:1;fill:#ffffff;stroke:#d45500;stroke-width:3;stroke-dasharray:none;stroke-opacity:1"
         d="m 223.71477,280.11223 c -1.77895,0.0645 -3.5579,-0.64346 -5.33685,3.46174 -2.88941,8.60358 2.96994,15.10102 4.18294,22.21281 z"
         id="path7"
         sodipodi:nodetypes="cccc" /><path
         style="fill:#ffffff;fill-opacity:0.571956;stroke:#d45500;stroke-width:1.63466;stroke-linecap:round;stroke-linejoin:round;stroke-miterlimit:0;stroke-dasharray:none;stroke-opacity:1"
         id="path22-5"
         sodipodi:type="arc"
         sodipodi:cx="-42.470856"
         sodipodi:cy="284.23972"
         sodipodi:rx="11.975124"
         sodipodi:ry="11.975124"
         sodipodi:start="0"
         sodipodi:end="3.1415927"
         sodipodi:arc-type="arc"
         d="m -30.495731,284.23972 a 11.975124,11.975124 0 0 1 -5.987563,10.37076 11.975124,11.975124 0 0 1 -11.975124,0 11.975124,11.975124 0 0 1 -5.987562,-10.37076"
         sodipodi:open="true"
         inkscape:transform-center-x="-3.0991145"
         inkscape:transform-center-y="1.8161838"
         transform="rotate(-51.755579,-39.247332,-40.134772)" /></g><g
       id="g11"
       inkscape:label="chica2"
       style="display:inline;fill:#ffffff;stroke:#d45500;stroke-width:3;stroke-dasharray:none;stroke-opacity:1"
       transform="matrix(1.0111923,0,0,1.0111923,-24.613357,51.137309)"><circle
         style="display:inline;opacity:1;fill:#ffffff;stroke:#d45500;stroke-width:3;stroke-dasharray:none;stroke-opacity:1"
         id="path11"
         cx="265.15149"
         cy="216.90855"
         r="14.645616" /><path
         style="display:inline;opacity:1;fill:#ffffff;stroke:#d45500;stroke-width:3;stroke-dasharray:none;stroke-opacity:1"
         d="m 225.08186,217.45879 c -0.74155,-1.56302 -2.04226,-12.18221 3.74122,-9.7487 8.41545,3.54096 20.45939,30.36565 38.85714,26.79654 17.01771,-0.56239 24.5216,-17.14804 32.78331,-32.45738 4.85615,-8.97199 6.80811,3.153 7.13355,6.62313 -0.85434,8.12251 -0.84253,19.89622 -19.05979,39.62929 0.95406,39.71645 2.04587,79.88327 -9.07809,80.11389 -8.05292,1.9201 -6.73678,-26.82215 -9.99525,-40.59298 -0.61624,12.13756 1.157,30.30569 -0.67125,39.38437 -1.95349,9.70056 -10.10854,5.18135 -12.12805,1.24634 -6.74458,-13.14176 -3.54173,-55.67363 -7.19122,-77.95993 -9.24383,-10.18131 -13.27138,-11.9554 -24.39157,-33.03457 z"
         id="path10"
         sodipodi:nodetypes="csccccccsscc" /><path
         style="fill:#ffffff;fill-opacity:0.571956;stroke:#d45500;stroke-width:1.24415;stroke-linecap:round;stroke-linejoin:round;stroke-miterlimit:0;stroke-dasharray:none;stroke-opacity:1"
         id="path22-7"
         sodipodi:type="arc"
         sodipodi:cx="-56.228676"
         sodipodi:cy="361.72687"
         sodipodi:rx="9.1143637"
         sodipodi:ry="9.1143637"
         sodipodi:start="0"
         sodipodi:end="3.1415927"
         sodipodi:arc-type="arc"
         d="m -47.114312,361.72687 a 9.1143637,9.1143637 0 0 1 -4.557182,7.89327 9.1143637,9.1143637 0 0 1 -9.114364,0 9.1143637,9.1143637 0 0 1 -4.557182,-7.89327"
         sodipodi:open="true"
         inkscape:transform-center-x="-2.3587557"
         inkscape:transform-center-y="1.3823045"
         transform="rotate(-51.755579,-44.035689,-42.45758)" /></g><g
       id="g15"
       inkscape:label="madre"
       transform="matrix(1.0111923,0,0,1.0111923,-23.898647,54.301509)"
       style="stroke:#d45500;stroke-opacity:1"><path
         style="display:inline;fill:#ffffff;fill-opacity:1;stroke:#d45500;stroke-width:3;stroke-dasharray:none;stroke-opacity:1"
         d="m 110.77559,146.2584 c 1.12624,-0.87256 4.34831,-1.74102 5.70581,1.10376 24.50522,51.35327 28.48505,50.94505 81.18797,58.071 6.22736,2.28136 6.20307,7.59994 3.68834,10.92541 -5.91826,4.01204 -15.58756,5.16269 -32.30954,6.92348 -1.35252,25.21263 3.01535,33.26405 6.92347,42.69476 11.54356,17.71922 10.93635,24.40666 7.50043,30.2902 l -7.43043,6.29702 c 3.15148,25.80789 0.87096,32.46081 -3.24326,32.64752 -9.94061,0.4979 -9.91222,-17.56822 -14.71238,-27.6939 h -7.93315 c 0.63841,10.84201 0.6867,20.45839 -3.60598,21.0589 -6.76712,-0.50514 -11.11828,-9.06348 -13.26999,-24.95335 -8.49331,-5.18464 -12.26272,-13.54935 -14.65541,-19.11528 10.28073,-21.84376 18.38266,-46.48389 7.73194,-78.82304 -9.96069,-18.72073 -23.83967,-37.23407 -15.57782,-59.42648 z"
         id="path12"
         sodipodi:nodetypes="cscccccccccccccc" /><ellipse
         style="fill:#ffffff;fill-opacity:1;stroke:#d45500;stroke-width:3;stroke-dasharray:none;stroke-opacity:1"
         id="path4"
         cx="158.66296"
         cy="174.88985"
         rx="16.299013"
         ry="17.092327" /><path
         style="opacity:1;fill:#ffffff;fill-opacity:0.571956;stroke:#d45500;stroke-width:1.47747;stroke-linecap:round;stroke-linejoin:round;stroke-miterlimit:0;stroke-dasharray:none;stroke-opacity:1"
         id="path22"
         sodipodi:type="arc"
         sodipodi:cx="-86.060196"
         sodipodi:cy="248.88602"
         sodipodi:rx="10.823619"
         sodipodi:ry="10.823619"
         sodipodi:start="0"
         sodipodi:end="3.1415927"
         sodipodi:arc-type="arc"
         d="m -75.236577,248.88602 a 10.823619,10.823619 0 0 1 -5.41181,9.37353 10.823619,10.823619 0 0 1 -10.823619,0 10.823619,10.823619 0 0 1 -5.411809,-9.37353"
         sodipodi:open="true"
         inkscape:transform-center-x="-2.8011105"
         inkscape:transform-center-y="1.6415426"
         transform="rotate(-51.755579,-39.247332,-40.134772)" /></g><g
       id="g14"
       inkscape:label="chica"
       transform="matrix(1.0111923,0,0,1.0111923,-24.613357,46.439698)"
       style="stroke:#d45500;stroke-opacity:1"><circle
         style="fill:#ffffff;fill-opacity:1;stroke:#d45500;stroke-width:3;stroke-dasharray:none;stroke-opacity:1"
         id="path3"
         cx="200.18579"
         cy="252.04021"
         r="14.38093" /><path
         style="display:inline;fill:#ffffff;fill-opacity:0.571956;stroke:#d45500;stroke-width:1.24415;stroke-linecap:round;stroke-linejoin:round;stroke-miterlimit:0;stroke-dasharray:none;stroke-opacity:1"
         id="path22-7-5"
         sodipodi:type="arc"
         sodipodi:cx="-120.75047"
         sodipodi:cy="329.0932"
         sodipodi:rx="9.1143637"
         sodipodi:ry="9.1143637"
         sodipodi:start="0"
         sodipodi:end="3.1415927"
         sodipodi:arc-type="arc"
         d="m -111.63611,329.0932 a 9.1143637,9.1143637 0 0 1 -4.55718,7.89327 9.1143637,9.1143637 0 0 1 -9.11437,0 9.1143637,9.1143637 0 0 1 -4.55718,-7.89327"
         sodipodi:open="true"
         inkscape:transform-center-x="-2.3587557"
         inkscape:transform-center-y="1.3823045"
         transform="rotate(-51.755579,-39.247332,-40.134772)" /><path
         style="fill:#ffffff;fill-opacity:1;stroke:#d45500;stroke-width:3;stroke-dasharray:none;stroke-opacity:1"
         d="m 166.85958,264.16034 c 9.22945,-1.78196 32.03179,23.54833 64.45921,-6.32353 5.42195,-0.76424 5.32244,2.33653 5.45913,5.27197 -7.36361,15.78382 -12.67699,16.15697 -18.51416,21.04208 2.20649,18.02813 6.28626,25.37071 8.97533,37.12523 l -7.95541,2.24383 c -0.90854,11.04799 -1.82763,20.81956 -6.82084,22.06909 -6.50817,1.86516 -7.13299,-8.30437 -6.64216,-20.43721 l -2.44781,0.20399 c -1.74235,7.2436 2.72489,19.14439 -6.7315,20.60246 -7.49216,1.69324 -5.78458,-14.17665 -7.95541,-22.64231 -3.32614,-1.73355 -6.95451,-1.65368 -9.79127,-6.32353 1.72314,-5.8816 3.99256,-15.22296 7.34345,-31.41366 -25.35473,-13.2002 -22.1128,-17.22788 -19.37856,-21.41841 z"
         id="path2"
         sodipodi:nodetypes="cccccccccccccc" /></g></g><g
     id="g41"
     inkscape:label="cerf_volant"
     transform="matrix(1.0660945,-0.04183939,0.04183939,1.0660945,-19.874885,4.8145085)"><path
       style="opacity:1;fill:none;fill-opacity:1;stroke:#800080;stroke-width:1;stroke-linecap:round;stroke-linejoin:round;stroke-miterlimit:0;stroke-dasharray:none;stroke-opacity:1"
       d="m 287.68211,149.02121 c -3.1477,-7.27215 -6.54964,-17.32362 -9.41848,-28.77867 3.55355,-2.17692 13.37426,-10.62037 18.83695,-11.51147 2.47124,1.75296 8.97387,12.90942 11.61612,18.7323 -7.02947,7.29408 -13.0031,16.01729 -21.03459,21.55784 z"
       id="path32"
       sodipodi:nodetypes="ccccc" /><path
       style="opacity:1;fill:#800080;fill-opacity:1;stroke:none;stroke-width:1;stroke-linecap:round;stroke-linejoin:round;stroke-miterlimit:0;stroke-dasharray:none;stroke-opacity:1"
       d="m 296.57733,109.25432 -8.99987,38.85121 0.68022,0.47093 9.15685,-39.42679 z"
       id="path33"
       sodipodi:nodetypes="ccccc" /><path
       style="opacity:1;fill:#800080;fill-opacity:1;stroke:none;stroke-width:50;stroke-linecap:round;stroke-linejoin:round;stroke-miterlimit:0;stroke-dasharray:none;stroke-opacity:1"
       d="m 278.93379,120.03324 29.6857,6.97507 -0.73999,0.97831 -29.61587,-7.01153 z"
       id="path34"
       sodipodi:nodetypes="ccccc" /><path
       style="fill:#800080;fill-opacity:1;stroke:none;stroke-width:0.5;stroke-linecap:round;stroke-linejoin:round;stroke-miterlimit:0;stroke-dasharray:none;stroke-opacity:1"
       d="m 288.41465,148.63853 c -1.31929,3.41664 -3.1445,7.57142 -16.53991,16.20275 -3.83115,3.60401 -7.25721,9.62694 -7.22083,18.41835 -0.35615,0.45518 -0.57851,0.24141 -0.8372,0.2093 -0.33715,-10.69164 3.49443,-15.13016 7.53478,-19.25555 5.4966,-4.89612 11.71683,-7.07865 16.22071,-15.69746 z"
       id="path35"
       sodipodi:nodetypes="ccccccc" /><path
       style="fill:none;fill-opacity:1;stroke:#800080;stroke-width:0.5;stroke-linecap:round;stroke-linejoin:round;stroke-miterlimit:0;stroke-dasharray:none;stroke-opacity:1"
       d="m 271.05663,164.53574 -0.81399,-4.18092 -3.69992,2.44195 3.73692,2.51595 z"
       id="path38" /><path
       style="fill:none;fill-opacity:1;stroke:#800080;stroke-width:0.5;stroke-linecap:round;stroke-linejoin:round;stroke-miterlimit:0;stroke-dasharray:none;stroke-opacity:1"
       d="m 270.35364,165.71971 0.92498,3.88493 3.36694,-2.40495 -3.07094,-2.44196 z"
       id="path39" /><path
       style="fill:none;fill-opacity:1;stroke:#800080;stroke-width:0.5;stroke-linecap:round;stroke-linejoin:round;stroke-miterlimit:0;stroke-dasharray:none;stroke-opacity:1"
       d="m 279.01147,158.46786 c -2.70095,-1.55397 -4.32892,-2.36795 -4.32892,-2.36795 l 3.69993,-3.14494 1.77597,4.58791 z"
       id="path40" /><path
       style="fill:none;fill-opacity:1;stroke:#800080;stroke-width:0.5;stroke-linecap:round;stroke-linejoin:round;stroke-miterlimit:0;stroke-dasharray:none;stroke-opacity:1"
       d="m 279.56646,159.13385 0.92498,4.55091 3.99592,-2.81195 -4.14392,-2.95994 z"
       id="path41" /><path
       style="opacity:1;fill:none;fill-opacity:1;stroke:#800080;stroke-width:0.5;stroke-linecap:round;stroke-linejoin:round;stroke-miterlimit:0;stroke-dasharray:none;stroke-opacity:1"
       d="m 265.44404,172.5674 -2.19765,-2.09299 -1.72672,3.40111 h 3.76739 z"
       id="path42" /><path
       style="opacity:1;fill:none;fill-opacity:1;stroke:#800080;stroke-width:0.5;stroke-linecap:round;stroke-linejoin:round;stroke-miterlimit:0;stroke-dasharray:none;stroke-opacity:1"
       d="m 266.12426,173.1953 3.03484,-0.15697 -1.15114,3.29646 -2.77322,-2.40694 z"
       id="path43" /></g></svg>
